<svg viewBox="0 0 100 100" xmlns="http://www.w3.org/2000/svg">
  <!-- Arm/Wrist with gradient -->
  <defs>
    <linearGradient id="armGradient" x1="0%" y1="0%" x2="0%" y2="100%">
      <stop offset="0%" stop-color="#d4a574"/>
      <stop offset="50%" stop-color="#c4956a"/>
      <stop offset="100%" stop-color="#f59e0b"/>
    </linearGradient>
    <linearGradient id="bananaGradient" x1="0%" y1="0%" x2="100%" y2="0%">
      <stop offset="0%" stop-color="#fbbf24"/>
      <stop offset="40%" stop-color="#f59e0b"/>
      <stop offset="70%" stop-color="#b45309"/>
      <stop offset="100%" stop-color="#78350f"/>
    </linearGradient>
  </defs>

  <!-- Wrist/Arm -->
  <path d="M42 100 L42 70 Q42 65 45 62 L55 62 Q58 65 58 70 L58 100" fill="url(#armGradient)"/>

  <!-- Fist/Hand -->
  <ellipse cx="50" cy="55" rx="18" ry="14" fill="#c4956a"/>

  <!-- Fingers wrapped around banana -->
  <path d="M32 48 Q28 45 30 40 Q32 36 36 38 L42 45" fill="#c4956a" stroke="#a67c52" stroke-width="0.5"/>
  <path d="M35 42 Q30 38 33 33 Q36 29 40 32 L44 40" fill="#c4956a" stroke="#a67c52" stroke-width="0.5"/>
  <path d="M40 38 Q36 32 40 27 Q44 23 48 28 L48 38" fill="#c4956a" stroke="#a67c52" stroke-width="0.5"/>
  <path d="M48 36 Q46 30 50 26 Q54 22 57 28 L54 38" fill="#c4956a" stroke="#a67c52" stroke-width="0.5"/>

  <!-- Banana -->
  <path d="M25 42 Q20 35 25 25 Q35 10 55 8 Q70 7 78 15 Q82 20 78 24 Q72 30 60 35 Q45 42 35 48 Q28 52 25 42" fill="url(#bananaGradient)" stroke="#92400e" stroke-width="1"/>

  <!-- Banana spots (spoiled) -->
  <circle cx="40" cy="22" r="2" fill="#78350f" opacity="0.7"/>
  <circle cx="52" cy="18" r="2.5" fill="#78350f" opacity="0.6"/>
  <circle cx="62" cy="22" r="1.5" fill="#78350f" opacity="0.7"/>
  <circle cx="35" cy="32" r="1.8" fill="#78350f" opacity="0.5"/>
  <circle cx="48" cy="28" r="2" fill="#78350f" opacity="0.6"/>

  <!-- Banana stem -->
  <path d="M78 15 Q82 12 80 8 Q78 5 74 7" fill="none" stroke="#5c4033" stroke-width="3" stroke-linecap="round"/>

  <!-- Fingernails hint -->
  <ellipse cx="31" cy="38" rx="2" ry="1.5" fill="#e8d5c4"/>
  <ellipse cx="35" cy="31" rx="2" ry="1.5" fill="#e8d5c4"/>
  <ellipse cx="42" cy="26" rx="2" ry="1.5" fill="#e8d5c4"/>
  <ellipse cx="52" cy="25" rx="2" ry="1.5" fill="#e8d5c4"/>
</svg>